<svg width="28" height="20" viewBox="0 0 28 20" xmlns="http://www.w3.org/2000/svg">
    <path d="M7.92977 13.8043C5.24401 12.2012 4 10 4 10C4 10 7.07692 4.55556 14 4.55556C15.0035 4.55556 15.9261 4.66994 16.7703 4.86555L16.1168 5.5263C15.4593 5.40338 14.7539 5.33333 14 5.33333C7.84615 5.33333 4.92304 10 4.92304 10C4.92304 10 6.08825 11.8602 8.4961 13.2317L7.92977 13.8043ZM11.2297 15.1345C12.0739 15.3301 12.9965 15.4444 14 15.4444C20.9231 15.4444 24 10 24 10C24 10 22.756 7.7988 20.0702 6.19565L19.5039 6.76828C21.9117 8.13977 23.077 10 23.077 10C23.077 10 20.1538 14.6667 14 14.6667C13.2461 14.6667 12.5407 14.5966 11.8832 14.4737L11.2297 15.1345ZM16.999 9.30105C17.05 9.52572 17.0769 9.75968 17.0769 10C17.0769 11.7182 15.6993 13.1111 14 13.1111C13.7623 13.1111 13.5309 13.0839 13.3087 13.0323L14 12.3333C14.5906 12.3333 15.1812 12.1055 15.6318 11.6499C16.0824 11.1943 16.3077 10.5972 16.3077 10L16.999 9.30105ZM14.6913 6.96771C14.4691 6.91614 14.2377 6.88889 14 6.88889C12.3007 6.88889 10.9231 8.28178 10.9231 10C10.9231 10.2403 10.95 10.4743 11.001 10.699L11.6923 10C11.6923 9.40285 11.9176 8.8057 12.3682 8.35008C12.8188 7.89447 13.4094 7.66667 14 7.66667L14.6913 6.96771ZM20.1538 3L7.07692 16.2222L7.84615 17L20.9231 3.77778L20.1538 3Z" fill="white"/>
</svg>
