<?xml version="1.0" standalone="no"?>
<!DOCTYPE svg PUBLIC "-//W3C//DTD SVG 20010904//EN"
 "http://www.w3.org/TR/2001/REC-SVG-20010904/DTD/svg10.dtd">
<svg version="1.0" xmlns="http://www.w3.org/2000/svg"
 width="700.000000pt" height="700.000000pt" viewBox="0 0 700.000000 700.000000"
 preserveAspectRatio="xMidYMid meet">
<g transform="translate(0.000000,700.000000) scale(0.100000,-0.100000)"
fill="#000000" stroke="none">
<path d="M1005 6989 c-250 -37 -477 -151 -660 -332 -364 -362 -448 -913 -208
-1368 60 -114 124 -198 225 -295 174 -167 374 -269 609 -310 125 -22 348 -14
466 15 364 91 664 345 804 680 105 253 118 567 33 820 -98 291 -315 541 -592
680 -195 98 -461 141 -677 110z"/>
<path d="M5648 6984 c-363 -56 -692 -299 -858 -633 -88 -176 -120 -325 -120
-566 0 -318 -74 -601 -221 -850 -57 -97 -199 -289 -282 -380 l-54 -59 -69 36
c-167 87 -350 131 -544 131 -260 0 -508 -83 -710 -238 -79 -61 -208 -199 -261
-280 -129 -195 -192 -407 -192 -645 0 -193 44 -377 130 -543 43 -81 50 -68
-107 -194 -255 -205 -458 -312 -718 -377 -188 -48 -260 -57 -427 -56 -240 1
-390 -31 -569 -121 -113 -57 -188 -111 -284 -203 -103 -99 -168 -185 -227
-297 -238 -458 -154 -1005 210 -1366 366 -363 912 -446 1366 -206 114 60 198
124 295 225 89 93 144 169 197 273 97 192 117 280 127 575 9 262 26 375 86
559 73 223 217 455 426 685 l44 50 95 -46 c177 -87 331 -122 524 -122 190 1
379 47 539 132 l68 37 50 -55 c193 -214 342 -460 417 -685 64 -195 83 -311 92
-560 8 -255 21 -329 83 -479 108 -260 311 -479 564 -605 147 -74 349 -121 517
-121 637 1 1164 528 1165 1165 0 300 -116 587 -328 807 -124 128 -239 208
-398 274 -151 62 -224 75 -484 84 -261 9 -377 27 -555 85 -220 72 -461 220
-680 418 l-60 55 37 68 c148 279 173 628 67 932 -17 48 -47 118 -67 156 l-37
68 55 50 c214 193 458 341 686 417 189 63 308 83 559 91 255 9 329 22 479 84
260 108 479 311 605 564 221 441 131 985 -223 1338 -267 267 -634 387 -1008
328z m-1975 -2810 c447 -113 661 -632 425 -1032 -42 -73 -167 -198 -240 -240
-128 -75 -294 -111 -438 -93 -166 21 -291 83 -410 201 -85 85 -130 156 -166
259 -67 193 -45 414 58 589 42 73 167 198 240 240 157 93 354 121 531 76z"/>
</g>
</svg>
